<?xml version="1.0" encoding="UTF-8"?>
<svg version="1.1" xmlns="http://www.w3.org/2000/svg" width="473" height="155">
<path d="M0 0 C156.09 0 312.18 0 473 0 C473 51.15 473 102.3 473 155 C316.91 155 160.82 155 0 155 C0 103.85 0 52.7 0 0 Z " fill="#212227" transform="translate(0,0)"/>
<path d="M0 0 C12.11085469 9.02192752 21.87495954 24.30033943 25.07421875 39.12109375 C26.4165289 54.30376309 26.2317393 68.48066953 19.07421875 82.12109375 C18.37232422 83.52294922 18.37232422 83.52294922 17.65625 84.953125 C8.01390747 102.5362202 -8.25536454 112.4153956 -26.92578125 118.12109375 C-45.64583197 122.31360511 -63.73924978 117.68361234 -79.92578125 108.12109375 C-83.14718577 105.99015056 -86.06006462 103.70620896 -88.92578125 101.12109375 C-89.52390625 100.61449219 -90.12203125 100.10789062 -90.73828125 99.5859375 C-101.13841543 90.13760131 -109.0578085 74.26050884 -110.06469727 60.17822266 C-110.92279712 41.09762402 -106.60416957 24.29294254 -94.0546875 9.43359375 C-68.74863203 -18.05481879 -30.51827241 -19.59851673 0 0 Z " fill="#0B36A7" transform="translate(113.92578125,29.87890625)"/>
<path d="M0 0 C0.95583984 -0.020625 1.91167969 -0.04125 2.89648438 -0.0625 C14.56321408 -0.12612225 24.85810662 3.89350264 33.5 11.8125 C42.50935044 21.30738429 45.8900525 33.52543263 45.6875 46.32421875 C44.75895454 56.04492899 40.81343542 64.87655383 33.3125 71.25 C27.51980592 75.56684845 21.38909834 76.19501158 14.3125 75.25 C11.46412747 74.30400766 10.43487489 73.40702485 8.57421875 71.01953125 C7.08836175 67.75800612 7.00745197 65.50312353 7.125 61.9375 C7.16560547 60.33455078 7.16560547 60.33455078 7.20703125 58.69921875 C7.24183594 57.89097656 7.27664063 57.08273438 7.3125 56.25 C6.94898438 57.05824219 6.58546875 57.86648437 6.2109375 58.69921875 C3.30004182 64.88673802 1.09128269 69.48122868 -4.6875 73.25 C-5.326875 73.683125 -5.96625 74.11625 -6.625 74.5625 C-11.15491799 76.07247266 -14.61744448 75.77453702 -18.875 73.6875 C-23.27099573 69.87763704 -25.80169138 65.84614991 -26.25390625 60.05078125 C-26.2817019 58.55494516 -26.2794582 57.05830427 -26.25 55.5625 C-26.23904297 54.77302979 -26.22808594 53.98355957 -26.21679688 53.17016602 C-25.83311359 42.70733604 -22.04132653 34.65115956 -14.8125 27.09375 C-8.738133 21.82334334 -2.28428292 20.10935355 5.625 20.125 C6.92050781 20.12242188 8.21601563 20.11984375 9.55078125 20.1171875 C12.90812923 20.23572315 16.0208127 20.60697271 19.3125 21.25 C18.87393569 28.63634624 18.25908366 35.9236415 17.25 43.25 C14.94418807 57.35099768 14.94418807 57.35099768 19.3125 70.25 C23.65086268 70.07986813 25.76800534 69.73262026 29.0625 66.8125 C36.07012639 56.93706611 35.48406376 43.47047239 33.84375 31.9609375 C32.06904009 24.46067539 28.41591002 18.43961585 23.0625 12.9375 C13.27458863 6.93128166 2.79512679 4.67828713 -8.5546875 6.78125 C-19.86851304 9.94499453 -26.94669172 17.27829465 -32.6875 27.25 C-38.52879141 37.78229774 -38.24604126 51.48910068 -35.921875 63.0625 C-32.73927306 73.16599821 -27.05210501 80.70425879 -17.90625 86.11328125 C-8.0162854 91.18014692 3.39990518 91.79979404 14.1171875 89.01171875 C20.16483317 86.91333636 26.19215298 84.30678952 30.3125 79.25 C32.2925 80.24 32.2925 80.24 34.3125 81.25 C31.5490363 87.66123579 25.61619908 90.89057511 19.375 93.5 C5.34947143 98.6079315 -9.11755693 99.06294532 -23.08203125 93.25390625 C-35.27791088 87.0812106 -41.97196703 78.08274123 -46.71484375 65.53125 C-51.15287945 51.62404134 -49.00965699 37.49972105 -42.625 24.625 C-35.80887979 12.75359063 -25.97303816 4.639309 -12.79907227 0.68286133 C-8.59026521 -0.17992222 -4.28089849 0.02263529 0 0 Z " fill="#F6F6F6" transform="translate(261.6875,20.75)"/>
<path d="M0 0 C0.33 1.98 0.66 3.96 1 6 C1.54269531 5.65066406 2.08539063 5.30132812 2.64453125 4.94140625 C3.35996094 4.48636719 4.07539063 4.03132813 4.8125 3.5625 C5.52019531 3.11003906 6.22789062 2.65757813 6.95703125 2.19140625 C13.01488047 -1.34137389 21.64270393 -0.99095696 28.3359375 0.53125 C31.92506398 1.97316981 34.49365832 4.09264366 37 7 C39.5097406 6.05939669 41.82141045 5.10893632 44.11328125 3.7109375 C51.72196332 -0.91103278 59.40301676 -1.11742759 68 0 C73.76739098 1.99575406 77.19091603 5.59791543 80 11 C82.09076849 16.85574491 82.2642171 22.12529671 82.1953125 28.30859375 C82.1924826 29.27531509 82.18965271 30.24203644 82.18673706 31.23805237 C82.17560407 34.30466452 82.15051224 37.37097715 82.125 40.4375 C82.11496131 42.52538639 82.10583701 44.61327738 82.09765625 46.70117188 C82.07568727 51.80089544 82.04120507 56.90039705 82 62 C84.64 62 87.28 62 90 62 C90 63.98 90 65.96 90 68 C80.76 68 71.52 68 62 68 C62 66.68 62 65.36 62 64 C62.969375 63.525625 63.93875 63.05125 64.9375 62.5625 C67.80477437 61.29806053 67.80477437 61.29806053 69 60 C69.13858338 57.06375265 69.21323695 54.15281116 69.23828125 51.21484375 C69.25038887 49.88036949 69.25038887 49.88036949 69.26274109 48.51893616 C69.27660515 46.62828532 69.28731686 44.73760921 69.29516602 42.84692383 C69.31228477 39.9736253 69.35613753 37.10150564 69.40039062 34.22851562 C69.41052562 32.39063346 69.41903919 30.5527415 69.42578125 28.71484375 C69.45204338 27.43624733 69.45204338 27.43624733 69.47883606 26.13182068 C69.45784019 20.26833639 68.25518954 15.91837179 65 11 C61.25850878 7.3718873 56.97698675 7.58021559 52.01171875 7.40625 C47.59497519 8.27699581 44.15963015 9.71503796 41 13 C39.87634822 16.81119633 40.06622062 20.48094354 40.21875 24.42578125 C40.23006958 25.52850876 40.24138916 26.63123627 40.25305176 27.76737976 C40.29778196 31.28419862 40.39814778 34.79691702 40.5 38.3125 C40.5401309 40.69850877 40.57663234 43.08458154 40.609375 45.47070312 C40.69750575 51.31519747 40.83131041 57.15730587 41 63 C43.64 63 46.28 63 49 63 C49 64.65 49 66.3 49 68 C40.09 68 31.18 68 22 68 C22 66.68 22 65.36 22 64 C22.804375 63.731875 23.60875 63.46375 24.4375 63.1875 C25.283125 62.795625 26.12875 62.40375 27 62 C28.31455612 58.05633165 28.16252591 54.27958124 28.16796875 50.16796875 C28.17129715 49.29860184 28.17462555 48.42923492 28.17805481 47.53352356 C28.1831175 45.693497 28.18546334 43.85346126 28.18530273 42.01342773 C28.18748354 39.20866599 28.20563044 36.40430124 28.22460938 33.59960938 C28.22754463 31.80989717 28.22952854 30.02018311 28.23046875 28.23046875 C28.23765427 27.39589645 28.24483978 26.56132416 28.25224304 25.70146179 C28.22916377 19.77008912 27.41193798 15.23962577 24.1875 10.125 C19.11720999 6.74480666 13.91099538 7.16087628 8 8 C5.50722699 9.07558539 4.07812164 10.20270561 2 12 C1.34 12 0.68 12 0 12 C0 28.83 0 45.66 0 63 C2.64 63 5.28 63 8 63 C8 64.65 8 66.3 8 68 C-0.91 68 -9.82 68 -19 68 C-19 66.68 -19 65.36 -19 64 C-18.21625 63.731875 -17.4325 63.46375 -16.625 63.1875 C-13.71885077 62.15185568 -13.71885077 62.15185568 -12 59 C-11.67277829 56.67839328 -11.67277829 56.67839328 -11.68115234 54.06958008 C-11.66128265 53.06876907 -11.64141296 52.06795807 -11.62094116 51.03681946 C-11.60938995 49.95861435 -11.59783875 48.88040924 -11.5859375 47.76953125 C-11.56657135 46.66397385 -11.5472052 45.55841644 -11.5272522 44.4193573 C-11.46741164 40.88381699 -11.4210527 37.34824421 -11.375 33.8125 C-11.33682438 31.41730341 -11.2977729 29.0221206 -11.2578125 26.62695312 C-11.16170642 20.75142436 -11.07667196 14.87581275 -11 9 C-13.97 9 -16.94 9 -20 9 C-20 7.35 -20 5.7 -20 4 C-19.16855469 3.87882812 -18.33710938 3.75765625 -17.48046875 3.6328125 C-16.39378906 3.46523438 -15.30710937 3.29765625 -14.1875 3.125 C-13.10855469 2.96257813 -12.02960938 2.80015625 -10.91796875 2.6328125 C-6.63846373 1.70472707 -4.57301342 -0.24718991 0 0 Z " fill="#F8F8F8" transform="translate(337,37)"/>
<path d="M0 0 C0.75982178 -0.00128906 1.51964355 -0.00257812 2.30249023 -0.00390625 C8.05464507 0.10489324 11.92551374 1.0902434 16.75 4.375 C16.75 3.055 16.75 1.735 16.75 0.375 C18.73 0.375 20.71 0.375 22.75 0.375 C22.75 8.295 22.75 16.215 22.75 24.375 C21.1 24.375 19.45 24.375 17.75 24.375 C17.60304688 23.50488281 17.60304688 23.50488281 17.453125 22.6171875 C16.25632472 16.36493778 14.52436244 11.89714767 9.6875 7.5 C4.13057976 5.37181778 -1.92581822 5.35236002 -7.375 7.75 C-10.0253524 10.04697208 -10.21677136 11.08701843 -10.625 14.625 C-10.16781295 19.19687051 -8.66116735 21.46790444 -5.25 24.375 C-1.76526085 26.31475588 1.87128292 27.81102948 5.5625 29.3125 C13.34136675 32.48360283 21.50454756 35.82777997 25.94311523 43.41430664 C27.74242199 47.7865404 27.24587849 52.75713161 26.75 57.375 C24.11676072 62.94531387 19.7545195 67.1509365 14.0078125 69.4921875 C4.31825684 72.11789443 -5.42605746 71.02573678 -14.25 66.375 C-14.58 67.365 -14.91 68.355 -15.25 69.375 C-17.23 69.375 -19.21 69.375 -21.25 69.375 C-21.58 61.785 -21.91 54.195 -22.25 46.375 C-20.6 46.375 -18.95 46.375 -17.25 46.375 C-17.11464844 47.02726562 -16.97929687 47.67953125 -16.83984375 48.3515625 C-15.20281116 54.99771876 -13.05655861 58.67878204 -7.25 62.375 C-2.71957153 65.06004009 1.61117052 64.90268391 6.75 64.375 C10.82218733 62.89420461 13.85824204 61.38107568 15.75 57.375 C15.75 53.33164312 15.34017475 51.12864474 12.83203125 47.92578125 C8.4115624 43.73450427 2.26141272 42.07767694 -3.32617188 39.9453125 C-10.55798056 37.04222084 -17.7203034 33.19095032 -21.25 25.875 C-23.07660267 19.48189065 -22.67365223 14.9985977 -19.5234375 9.234375 C-14.6164654 2.06959364 -8.35509146 -0.01445674 0 0 Z " fill="#F6F6F6" transform="translate(174.25,36.625)"/>
<path d="M0 0 C0 20.79 0 41.58 0 63 C2.64 63 5.28 63 8 63 C8 64.65 8 66.3 8 68 C-0.91 68 -9.82 68 -19 68 C-19 66.68 -19 65.36 -19 64 C-16.525 63.505 -16.525 63.505 -14 63 C-13.13750182 59.99953513 -12.85716776 57.28910216 -12.81054688 54.17138672 C-12.79382935 53.21714813 -12.77711182 52.26290955 -12.7598877 51.27975464 C-12.74631226 50.25673248 -12.73273682 49.23371033 -12.71875 48.1796875 C-12.70034058 47.12468048 -12.68193115 46.06967346 -12.66296387 44.98269653 C-12.58428786 40.46822224 -12.5164005 35.95360107 -12.44775391 31.43896484 C-12.39611665 28.14412867 -12.33884621 24.849424 -12.28125 21.5546875 C-12.26767456 20.52761688 -12.25409912 19.50054626 -12.2401123 18.44235229 C-12.22339478 17.49441803 -12.20667725 16.54648376 -12.18945312 15.56982422 C-12.17692505 14.73361542 -12.16439697 13.89740662 -12.15148926 13.03585815 C-12 11 -12 11 -11 9 C-13.97 9 -16.94 9 -20 9 C-20 7.35 -20 5.7 -20 4 C-19.18015625 3.87882812 -18.3603125 3.75765625 -17.515625 3.6328125 C-16.43796875 3.46523438 -15.3603125 3.29765625 -14.25 3.125 C-13.18265625 2.96257813 -12.1153125 2.80015625 -11.015625 2.6328125 C-8.06895457 2.14774799 -8.06895457 2.14774799 -5.859375 0.9296875 C-4 0 -4 0 0 0 Z " fill="#F6F6F6" transform="translate(456,37)"/>
<path d="M0 0 C1.17369141 -0.00386719 1.17369141 -0.00386719 2.37109375 -0.0078125 C4.5625 0.125 4.5625 0.125 7.5625 1.125 C6.65372302 16.4801973 3.73950759 31.48556605 -6.46875 43.51953125 C-8.4375 45.125 -8.4375 45.125 -12 45.6875 C-15.4375 45.125 -15.4375 45.125 -17.3125 42.8125 C-20.92442596 34.18401021 -20.49645486 24.16241576 -17.41796875 15.375 C-14.02435794 7.5872716 -9.28616477 -0.03049644 0 0 Z " fill="#25262A" transform="translate(264.4375,44.875)"/>
<path d="M0 0 C2 2 2 2 2 6 C1.34 6 0.68 6 0 6 C-0.495 4.515 -0.495 4.515 -1 3 C-10.66820505 1.88443788 -18.39011041 6.85203679 -25.9375 12.5 C-32.60253218 18.0140169 -32.60253218 18.0140169 -35.8125 25.875 C-35.874375 26.90625 -35.93625 27.9375 -36 29 C-35.27296875 29.36351563 -34.5459375 29.72703125 -33.796875 30.1015625 C-20.8984375 36.55078125 -20.8984375 36.55078125 -8 43 C-7.22914062 42.4225 -6.45828125 41.845 -5.6640625 41.25 C-4.66117188 40.5075 -3.65828125 39.765 -2.625 39 C-1.62726563 38.2575 -0.62953125 37.515 0.3984375 36.75 C3 35 3 35 5 35 C3.69390883 38.91827351 2.02460325 39.40600136 -1.4375 41.5625 C-5.50110499 44.28528779 -5.50110499 44.28528779 -7.890625 48.359375 C-8.09160728 50.02012332 -8.27469598 51.68311831 -8.44140625 53.34765625 C-10.02007126 60.84355514 -16.73628084 67.71839112 -22.90234375 71.984375 C-26.47458084 73.71394976 -30.07268762 73.981818 -34 74 C-34.70703125 71.796875 -34.70703125 71.796875 -35 69 C-31.27856108 62.25000267 -25.02934261 56.98303041 -19.27734375 51.984375 C-16.72483223 49.76023117 -14.35293798 47.43136925 -12 45 C-17.7201332 40.58883908 -23.29733141 38.07775655 -30.03515625 35.59570312 C-36.95699143 32.92163714 -36.95699143 32.92163714 -39 29 C-39.64395471 25.85177697 -39.50627654 23.91055597 -37.93359375 21.08203125 C-30.01325234 9.92449308 -14.51083422 -2.50186797 0 0 Z " fill="#DCE2F2" transform="translate(90,41)"/>
<path d="M0 0 C1.37094883 4.11284649 0.09641492 5.86470447 -1.70703125 9.65625 C-5.27359667 16.12132328 -10.2450949 20.92076195 -17 24 C-20 24.3125 -20 24.3125 -22 24 C-19.22598528 14.13683657 -8.17204391 5.44802927 0 0 Z " fill="#163FAC" transform="translate(79,89)"/>
<path d="M0 0 C3.5625 0.5 3.5625 0.5 6 2.125 C8.04634007 5.23543691 8.16057728 6.83677666 7.5625 10.5 C5.9375 13.375 5.9375 13.375 3.5625 15.5 C-0.09355504 16.18551032 -1.7004338 15.98491197 -4.8125 13.9375 C-7.0460569 10.58716465 -6.93148209 8.4518567 -6.4375 4.5 C-4.84580713 0.8484693 -3.98042609 0.57897107 0 0 Z " fill="#F8F8F8" transform="translate(449.4375,8.5)"/>
<path d="M0 0 C0.66 0.66 1.32 1.32 2 2 C1.63783038 5.40439442 0.00666777 7.82590218 -1.875 10.625 C-2.38804688 11.40101562 -2.90109375 12.17703125 -3.4296875 12.9765625 C-5 15 -5 15 -8 17 C-7.40570914 13.94173916 -6.487825 12.05879362 -4.5625 9.625 C-2.27419824 6.56290834 -0.99872345 3.72251467 0 0 Z " fill="#D1D9EE" transform="translate(79,92)"/>
<path d="M0 0 C0.66 0.33 1.32 0.66 2 1 C1.0409375 2.3921875 1.0409375 2.3921875 0.0625 3.8125 C-2.08622093 6.84219943 -2.08622093 6.84219943 -3 10 C-2.01 10.33 -1.02 10.66 0 11 C-1.65 10.67 -3.3 10.34 -5 10 C-4.49701212 5.59885603 -2.91227269 3.28804981 0 0 Z " fill="#E9EDF7" transform="translate(60,104)"/>
<path d="M0 0 C0.99 0.33 1.98 0.66 3 1 C3 3.31 3 5.62 3 8 C2.01 8.495 2.01 8.495 1 9 C-1.125 2.25 -1.125 2.25 0 0 Z " fill="#E6EAF6" transform="translate(79,85)"/>
<path d="M0 0 C-1.15173355 2.46800047 -2.04783565 4.04783565 -4 6 C-4.99 5.67 -5.98 5.34 -7 5 C-2.25 0 -2.25 0 0 0 Z " fill="#D6DDF0" transform="translate(67,98)"/>
<path d="M0 0 C2.375 -0.125 2.375 -0.125 5 0 C7 2 7 2 7 6 C6.34 6 5.68 6 5 6 C4.731875 5.38125 4.46375 4.7625 4.1875 4.125 C3.04443152 1.7004767 3.04443152 1.7004767 0 0 Z " fill="#E3E8F5" transform="translate(85,41)"/>
</svg>
